<svg width="88" height="34" viewBox="0 0 88 34" fill="none" xmlns="http://www.w3.org/2000/svg">
<g clip-path="url(#clip0_4025_1193)">
<path d="M4.31986 8.21073V10.9415H0V16.0975H4.31986V34H11.5412V16.0975H17.0477V10.9415H11.5412V8.61802C11.5412 6.50749 12.9039 5.41519 15.1566 5.41519C16.0465 5.41519 16.9921 5.57256 17.7615 6.03539V0.629458C16.6954 0.212905 15.3976 0 13.6826 0C8.0557 0 4.31986 2.99918 4.31986 8.21073Z" fill="white"/>
<path d="M49.411 10.5234C45.6732 10.5234 43.1163 11.8046 41.3961 13.4545C39.9085 11.7585 37.4166 10.5234 34.2646 10.5234C31.2986 10.5234 28.8625 11.5005 27.5515 12.9383V11.0396H20.1875V33.9996H27.5515V19.206C28.0257 17.252 29.8109 16.2289 31.7077 16.2289C34.2646 16.2289 35.4454 17.8695 35.4454 20.3397V33.9996H42.8652V19.206C43.3394 17.252 45.0595 16.2289 46.9656 16.2289C49.5226 16.2289 50.7685 17.8695 50.7685 20.3397V33.9996H58.1325V19.0033C58.1325 13.814 54.8689 10.5234 49.4017 10.5234H49.411Z" fill="white"/>
<path d="M84.4715 21.5034C84.7189 22.1884 85.3849 22.6883 86.1842 22.6883C87.1928 22.6883 88.0016 21.8922 88.0016 20.9202C88.0016 19.9483 87.1833 19.1522 86.1842 19.1522C85.3944 19.1522 84.7284 19.6521 84.4715 20.3371H77.0212L87.5544 10.9507H78.1915L68.8953 19.5132V0H61.3594V34H68.8953V26.7242L71.0838 24.7155L79.0479 34H87.9825L77.2115 21.5034H84.4715Z" fill="white"/>
</g>
<defs>
<clipPath id="clip0_4025_1193">
<rect width="88" height="34" fill="white"/>
</clipPath>
</defs>
</svg>
